# xmcd
#
# Track frame offsets: 
#        150
#        16981
#        31613
#        55847
#        71373
#        89731
#        104131
#        117603
#        132003
#        156490
#
# Disc length: 2170 seconds
#
# Revision: 0
# Processed by: cddbd v1.5.2PL0 Copyright (c) Steve Scherf et al.
# Submitted via: ExactAudioCopy v1.0b4
#
DISCID=8808780a
DTITLE=The Congregation - Record Collection
DYEAR=2015
DGENRE=Soul
TTITLE0=Record Collection
TTITLE1=Gonna Get You Back
TTITLE2=They Will Fall
TTITLE3=Under My Skin
TTITLE4=Sentimental One
TTITLE5=Until We Die
TTITLE6=Love Letter
TTITLE7=Better Days
TTITLE8=The Bottom
TTITLE9=Record Collection (Reprise)
EXTD=
EXTT0=
EXTT1=
EXTT2=
EXTT3=
EXTT4=
EXTT5=
EXTT6=
EXTT7=
EXTT8=
EXTT9=
PLAYORDER=
